<?xml version="1.0" encoding="utf-8"?>
<!-- Generator: Adobe Illustrator 19.2.1, SVG Export Plug-In . SVG Version: 6.00 Build 0)  -->
<svg version="1.1" id="Layer_1" xmlns="http://www.w3.org/2000/svg" xmlns:xlink="http://www.w3.org/1999/xlink" x="0px" y="0px"
	 viewBox="0 0 233.9 142.1" style="enable-background:new 0 0 233.9 142.1;" xml:space="preserve">
<style type="text/css">
	.st0{fill:#C6C7C8;}
	.st1{fill:#FFFFFF;}
	.st2{font-family:'ArialMT';}
	.st3{font-size:35px;}
	.st4{fill:#FF0000;}
	.st5{font-size:12px;}
</style>
<path class="st0" d="M99.9,10C37.7,30-3.9,73.5,6.9,107.2s70,44.8,132.2,24.9c62.2-20,103.9-63.5,93-97.2
	C221.4,1.2,162.1-10,99.9,10z M121.6,115.3c-49.7,16-96.7,8.1-105-17.7s25.3-59.5,75-75.5s96.7-8.1,105,17.7S171.3,99.3,121.6,115.3
	z"/>
<text transform="matrix(1 0 0 1 4.397583e-02 75.9094)" class="st1 st2 st3">team</text>
<text transform="matrix(1 0 0 1 77.844 75.9094)" class="st4 st2 st3">2</text>
<text transform="matrix(1 0 0 1 97.344 75.9094)" class="st1 st2 st3">work</text>
<text transform="matrix(1 0 0 1 4.382324e-02 89.9094)" class="st1 st2 st5">Arbeitskräfteüberlassung GmbH</text>
</svg>
